<svg height="511pt" viewBox="0 -63 511.99992 511" width="511pt" xmlns="http://www.w3.org/2000/svg"><path d="m407 355.140625h-30c-8.285156 0-15 6.71875-15 15 0 8.285156 6.714844 15 15 15h30c8.285156 0 15-6.714844 15-15 0-8.28125-6.714844-15-15-15zm0 0"/><path d="m317 355.140625h-30c-8.285156 0-15 6.71875-15 15 0 8.285156 6.714844 15 15 15h30c8.285156 0 15-6.714844 15-15 0-8.28125-6.714844-15-15-15zm0 0"/><path d="m497 355.140625h-30c-8.285156 0-15 6.71875-15 15 0 8.285156 6.714844 15 15 15h30c8.285156 0 15-6.714844 15-15 0-8.28125-6.714844-15-15-15zm0 0"/><path d="m227 355.140625h-30c-8.285156 0-15 6.71875-15 15 0 8.285156 6.714844 15 15 15h30c8.285156 0 15-6.714844 15-15 0-8.28125-6.714844-15-15-15zm0 0"/><path d="m338.402344 16.605469-192.574219 192.09375c-.003906.003906-.003906.003906-.007813.007812 0 .003907-.003906.003907-.003906.003907l-141.421875 141.421874c-3.386719 3.386719-4.953125 8.183594-4.214843 12.914063.734374 4.730469 3.6875 8.828125 7.9375 11.023437 14.476562 7.472657 30.320312 11.09375 46.09375 11.09375 26.382812 0 52.570312-10.140624 71.804687-29.375l38.390625-38.390624c14.007812-14.007813 31.722656-23.257813 51.226562-26.746094 5.5-.984375 9.996094-4.941406 11.667969-10.273438 1.671875-5.328125.246094-11.148437-3.703125-15.097656l-31.019531-31.019531 76.828125-.121094c3.960938-.003906 7.761719-1.578125 10.566406-4.378906l135.957032-135.601563c21.441406-21.445312 21.496093-56.285156.117187-77.660156-21.371094-21.375-56.199219-21.328125-77.644531.105469zm-195.210938 279.582031-38.386718 38.390625c-10.265626 10.261719-24.125 17.234375-39.035157 19.632813-7.804687 1.253906-15.566406 1.257812-23.078125.050781l113.730469-113.730469 28.09375 28.09375c-15.371094 6.304688-29.375 15.613281-41.324219 27.5625zm251.539063-223.253906-131.5625 131.21875-70.414063.109375 166.835938-166.417969c.003906-.003906.007812-.007812.011718-.011719 4.894532-4.894531 11.316407-7.347656 17.726563-7.347656 6.351563 0 12.6875 2.410156 17.507813 7.226563 9.683593 9.683593 9.628906 25.488281-.105469 35.222656zm0 0"/></svg>